<svg id="Phone" xmlns="http://www.w3.org/2000/svg" viewBox="0 0 1451.34 1451.34"><defs><style>.cls-1{fill:#20478f;}</style></defs><title>phone</title><path class="cls-1" d="M1410.67,1259.22c-.37,0-.37.36,0,0-14.24,15.14-28.84,28.83-44.54,44-23.73,22.34-47.83,45.77-70.46,72.07-36.87,38.92-80.32,57.3-137.27,57.3-5.48,0-11.32,0-16.79-.36-108.43-6.85-209.19-48.65-284.76-84.33C650.21,1249.13,468.77,1108.95,318,931.29,193.5,783.18,110.26,646.24,55.13,499.21c-34-89.73-46.37-159.64-40.89-225.59,3.65-42.16,20.08-77.12,50.38-107L189.12,43.71C207,27.13,226,18.13,244.61,18.13c23,0,41.62,13.69,53.3,25.23l1.1,1.08c22.27,20.54,43.44,41.8,65.71,64.51,11.32,11.53,23,23.06,34.68,35l99.67,98.38c38.7,38.2,38.7,73.51,0,111.71-10.59,10.45-20.81,20.9-31.4,31C437,416,407.8,444.8,376,472.91c-.73.72-1.46,1.08-1.83,1.8-31.4,31-25.56,61.26-19,81.8l1.1,3.24c25.92,62,62.43,120.36,117.92,189.91l.37.36c100.76,122.52,207,218,324.19,291.17,15,9.37,30.3,16.94,44.9,24.14,13.14,6.49,25.56,12.61,36.14,19.1,1.46.72,2.92,1.8,4.38,2.52,12.41,6.13,24.1,9,36.14,9,30.3,0,49.29-18.74,55.49-24.87l124.86-123.24c12.41-12.25,32.13-27,55.13-27,22.63,0,41.25,14.05,52.57,26.31l.73.72,201.16,198.56C1447.91,1183.18,1447.91,1221,1410.67,1259.22Z"/></svg>